<?xml version="1.0" encoding="utf-8"?>
<!-- Generator: Adobe Illustrator 27.9.0, SVG Export Plug-In . SVG Version: 6.00 Build 0)  -->
<svg version="1.1" id="레이어_1" xmlns="http://www.w3.org/2000/svg" xmlns:xlink="http://www.w3.org/1999/xlink" x="0px"
	 y="0px" viewBox="0 0 30.9 30.9" style="enable-background:new 0 0 30.9 30.9;" xml:space="preserve">
<style type="text/css">
	.st0{fill:#0C0C0D;}
	.st1{fill:#A3A3A3;}
</style>
<g>
	<path shape-rendering="crispEdges" class="st0" d="M13.6,0.1L13.6,0.1c8.5-1,16.2,5,17.2,13.5l0,0c1,8.5-5,16.2-13.5,17.2l0,0
		c-8.5,1-16.2-5-17.2-13.5l0,0C-0.9,8.8,5.2,1.1,13.6,0.1z"/>
	<path class="st1" d="M12.8,22.4c-0.5,0.1-0.9-0.1-1.3-0.4c-0.4-0.3-0.6-0.7-0.7-1.2l-1-8.6L9,12.3l-0.2-1.8l3.8-0.5l-0.1-0.9
		l4.4-0.5L17,9.5l3.9-0.5l0.2,1.8L20.1,11l1,8.6c0.1,0.5-0.1,0.9-0.4,1.3c-0.3,0.4-0.7,0.6-1.2,0.7L12.8,22.4z M18.4,11.2L11.6,12
		l1,8.6l6.8-0.8L18.4,11.2z M13.7,19.2l1.5-0.2l-0.7-6.1L13,13.1L13.7,19.2z M16.5,18.9l1.5-0.2l-0.7-6.1l-1.5,0.2L16.5,18.9z"/>
</g>
</svg>
