<svg width="34" height="34" viewBox="0 0 34 34" fill="none" xmlns="http://www.w3.org/2000/svg">
<g filter="url(#filter0_d_95_163)">
<rect x="0.490723" y="4.13861" width="28" height="28" rx="14" transform="rotate(-6.78192 0.490723 4.13861)" fill="#0C0C0D" shape-rendering="crispEdges"/>
<path d="M13.6708 22.7121C13.2291 22.7647 12.8356 22.6505 12.4903 22.3696C12.145 22.0887 11.9453 21.7204 11.8911 21.2645L10.9604 13.4388L10.1678 13.5331L9.97326 11.8969L13.4459 11.484L13.3486 10.6659L17.3095 10.1948L17.4068 11.0129L20.8963 10.5979L21.0909 12.2341L20.2983 12.3283L21.229 20.154C21.2832 20.6099 21.1754 21.0148 20.9056 21.3688C20.6358 21.7229 20.28 21.9261 19.8384 21.9787L13.6708 22.7121ZM18.7132 12.5168L12.5455 13.2503L13.4762 21.076L19.6438 20.3425L18.7132 12.5168ZM14.478 19.8018L15.8687 19.6364L15.2079 14.0797L13.8172 14.2451L14.478 19.8018ZM16.9804 19.5042L18.3711 19.3388L17.7103 13.7821L16.3196 13.9475L16.9804 19.5042Z" fill="#A3A3A3"/>
</g>
<defs>
<filter id="filter0_d_95_163" x="-0.509277" y="-0.167908" width="35.1106" height="35.1106" filterUnits="userSpaceOnUse" color-interpolation-filters="sRGB">
<feFlood flood-opacity="0" result="BackgroundImageFix"/>
<feColorMatrix in="SourceAlpha" type="matrix" values="0 0 0 0 0 0 0 0 0 0 0 0 0 0 0 0 0 0 127 0" result="hardAlpha"/>
<feOffset dx="1" dy="1"/>
<feGaussianBlur stdDeviation="1"/>
<feComposite in2="hardAlpha" operator="out"/>
<feColorMatrix type="matrix" values="0 0 0 0 0 0 0 0 0 0 0 0 0 0 0 0 0 0 0.25 0"/>
<feBlend mode="normal" in2="BackgroundImageFix" result="effect1_dropShadow_95_163"/>
<feBlend mode="normal" in="SourceGraphic" in2="effect1_dropShadow_95_163" result="shape"/>
</filter>
</defs>
</svg>
