<?xml version="1.0" encoding="utf-8"?>
<!-- Generator: Adobe Illustrator 27.9.0, SVG Export Plug-In . SVG Version: 6.00 Build 0)  -->
<svg version="1.1" id="green" xmlns="http://www.w3.org/2000/svg" xmlns:xlink="http://www.w3.org/1999/xlink" x="0px" y="0px"
     viewBox="0 0 376.9 253.3" enable-background="new 0 0 376.9 253.3" xml:space="preserve">
  <g id="green_00000162343193967610411210000010608060360086381496_">
    <g>
		<ellipse fill="#AED18C" cx="188.4" cy="126.7" rx="187.9" ry="126.2"/>
		<path d="M188.4,1c50.1,0,97.3,13.1,132.7,36.9c35.3,23.7,54.8,55.2,54.8,88.7s-19.4,65-54.8,88.7c-35.4,23.8-82.6,36.9-132.7,36.9
			s-97.3-13.1-132.7-36.9C20.4,191.7,1,160.2,1,126.7s19.4-65,54.8-88.7C91.2,14.1,138.3,1,188.4,1 M188.4,0C84.4,0,0,56.7,0,126.7
			s84.4,126.7,188.4,126.7s188.4-56.7,188.4-126.7S292.5,0,188.4,0L188.4,0z"/>
	</g>
	<g>
		<path d="M155.7,121.8c-0.8-0.6-1.8-0.9-3-0.9c-1.1,0-2,0.2-2.7,0.6s-1.1,0.9-1.1,1.6c0,1.2,1.1,2,3.2,2.4l6.3,1.2
			c3.2,0.6,5.7,1.6,7.2,3s2.4,3.3,2.4,5.6c0,2.2-0.7,4.1-2,5.8s-3.1,2.9-5.4,3.9c-2.3,0.9-4.9,1.4-7.8,1.4c-3.1,0-5.9-0.4-8.2-1.3
			s-4.1-2.1-5.4-3.7s-2.1-3.5-2.3-5.7h11c0.2,1,0.7,1.8,1.6,2.4s2,0.8,3.3,0.9c1.1,0,2.1-0.2,2.8-0.6c0.7-0.4,1.1-0.9,1.1-1.6
			c0-0.6-0.3-1.2-0.9-1.5c-0.6-0.4-1.5-0.7-2.8-0.9l-5.6-1c-3.2-0.6-5.6-1.7-7.2-3.2c-1.6-1.6-2.4-3.6-2.4-6.1c0-2.2,0.6-4,1.8-5.6
			s2.9-2.7,5-3.5c2.2-0.8,4.8-1.2,7.8-1.2s5.6,0.4,7.8,1.3s3.9,2.1,5.1,3.7s1.9,3.5,2,5.7H157C156.9,123.1,156.5,122.3,155.7,121.8
			L155.7,121.8z"/>
		<path d="M193.5,145.6h-12.8L170,113.8h11.7l5.3,21.3h0.3l5.4-21.3h11.6L193.5,145.6z"/>
		<path d="M213.8,156.9c-2.3-0.9-4-2.1-5.3-3.7s-2-3.4-2.1-5.4h10.7c0.2,1,0.7,1.7,1.6,2.2s2,0.7,3.5,0.7c3.6,0,5.4-1.8,5.3-5.2
			v-5.4h-0.3c-0.6,1.6-1.7,2.8-3.3,3.7s-3.5,1.4-5.6,1.4c-2.4,0-4.5-0.6-6.4-1.7c-1.9-1.1-3.4-2.8-4.5-5.1s-1.7-5.2-1.7-8.8
			s0.6-6.7,1.7-9.1s2.7-4.2,4.6-5.4c1.9-1.2,4-1.8,6.2-1.8s4.2,0.6,5.7,1.7s2.6,2.5,3.3,4.2h0.3v-5.5h11.1v31.8
			c0,2.6-0.7,4.9-2.1,6.8c-1.4,1.9-3.3,3.3-5.8,4.3s-5.4,1.5-8.7,1.5C218.8,158.2,216.1,157.8,213.8,156.9L213.8,156.9z
			 M218.4,135.3c0.9,1.3,2.2,2,3.8,2s3-0.7,3.9-2s1.4-3.2,1.4-5.6c0-2.4-0.5-4.3-1.4-5.7s-2.2-2.1-3.9-2c-1.6,0-2.9,0.7-3.8,2.1
			s-1.4,3.3-1.4,5.8C217,132.4,217.5,134,218.4,135.3L218.4,135.3z"/>
	</g>
</g>
<rect id="green_00000088818312032130229780000015743930695529838487_" x="93" y="36.4" fill="#45543D" stroke="#000000" stroke-miterlimit="10" width="31.1" height="171.6"/>
</svg>
