<?xml version="1.0" encoding="utf-8"?>
<!-- Generator: Adobe Illustrator 27.9.0, SVG Export Plug-In . SVG Version: 6.00 Build 0)  -->
<svg version="1.1" id="_레이어_2" xmlns="http://www.w3.org/2000/svg" xmlns:xlink="http://www.w3.org/1999/xlink" x="0px"
	 y="0px" viewBox="0 0 235.7 297" enable-background="new 0 0 235.7 297" xml:space="preserve">
<path fill="#FFFFFF" stroke="#000000" stroke-miterlimit="10" d="M223.2,81.9h-73.5c-4.6-3.6-10.2-5.9-16.4-6.4v-7.8
	c12.6-5.3,21.5-17.8,21.5-32.3c0-19.3-15.7-35-35-35s-35,15.7-35,35c0,14.5,8.9,27,21.5,32.3v7.8c-6.3,0.5-12,2.8-16.7,6.5
	c-0.7-0.1-1.4-0.2-2.1-0.2h-75c-6.6,0-12,5.4-12,12V96c0,6.6,5.4,12,12,12h65.7v36.3c0,3.5,0.6,6.8,1.7,10c-0.1,0.7-0.2,1.3-0.2,2
	v128.2c0,6.6,5.4,12,12,12h13c6.6,0,12-5.4,12-12v-110h6v110c0,6.6,5.4,12,12,12h13c6.6,0,12-5.4,12-12V156.3c0-0.7-0.1-1.4-0.2-2
	c1.1-3.1,1.7-6.5,1.7-10V108h62c6.6,0,12-5.4,12-12v-2.1C235.2,87.3,229.8,81.9,223.2,81.9z"/>
</svg>
