<svg width="90" height="90" viewBox="0 0 90 90" fill="none" xmlns="http://www.w3.org/2000/svg">
<g clip-path="url(#clip0_98_8340)">
<path d="M72.9021 51.8381C75.1622 51.8381 77 50.0016 77 47.7432V46.2487C77 43.5507 74.8022 41.3545 72.1021 41.3545C71.8065 41.3545 71.5109 41.3811 71.2265 41.4344L65.4596 42.4826V31.919C65.4596 20.9358 56.5171 12 45.5256 12C34.5341 12 25.5893 20.9358 25.5893 31.919V42.6713L18.778 41.4344C18.4913 41.3811 18.1957 41.3545 17.8979 41.3545C15.1956 41.3545 13 43.5507 13 46.2487V47.7432C13 50.0016 14.8378 51.8381 17.0979 51.8381C18.7802 51.8381 20.278 50.8166 20.8981 49.2732L24.5848 51.7293C23.2315 56.5702 20.7225 59.1128 18.6869 61.1647C16.7601 63.1077 15.0979 64.7865 15.0979 67.5623C15.0979 70.8089 18.1535 72.8052 20.3447 72.8052C22.0559 72.8052 22.907 72.2501 23.6581 71.7593C24.4871 71.2197 25.2715 70.7067 27.6894 70.7067C31.4518 70.7067 33.2963 72.0125 35.4319 73.5247C37.7297 75.1524 40.3365 76.9956 45.5256 76.9956C50.7146 76.9956 53.3192 75.1502 55.6193 73.5247C57.7549 72.0125 59.6016 70.7067 63.3617 70.7067C65.7796 70.7067 66.5619 71.2175 67.393 71.7593C68.1441 72.2501 68.9953 72.8052 70.7065 72.8052C72.8976 72.8052 75.9533 70.8111 75.9533 67.5623C75.9533 64.7865 74.2888 63.1077 72.3643 61.1647C70.242 59.0218 67.6219 56.3659 66.3107 51.1341L69.1042 49.2732C69.7264 50.8166 71.222 51.8381 72.9043 51.8381H72.9021Z" fill="url(#paint0_linear_98_8340)"/>
<path d="M54.1903 31.2192C56.3415 31.2192 58.0838 33.1867 58.0838 35.6161C58.0838 38.0454 56.3415 40.0129 54.1903 40.0129C52.0391 40.0129 50.2968 38.0454 50.2968 35.6161C50.2968 33.1867 52.0391 31.2192 54.1903 31.2192Z" fill="white"/>
<path d="M54.1903 31.1816C56.3415 31.1816 58.0838 33.1491 58.0838 35.5785C58.0838 38.0079 56.3415 39.9753 54.1903 39.9753C52.0391 39.9753 50.2968 38.0079 50.2968 35.5785C50.2968 33.1491 52.0391 31.1816 54.1903 31.1816Z" fill="white"/>
<path d="M54.1903 31.1436C56.3415 31.1436 58.0838 33.111 58.0838 35.5404C58.0838 37.9698 56.3415 39.9372 54.1903 39.9372C52.0391 39.9372 50.2968 37.9698 50.2968 35.5404C50.2968 33.111 52.0391 31.1436 54.1903 31.1436Z" fill="white"/>
<path d="M54.1903 31.106C56.3415 31.106 58.0838 33.0734 58.0838 35.5028C58.0838 37.9322 56.3415 39.8996 54.1903 39.8996C52.0391 39.8996 50.2968 37.9322 50.2968 35.5028C50.2968 33.0734 52.0391 31.106 54.1903 31.106Z" fill="white"/>
<path d="M54.1903 31.0684C56.3415 31.0684 58.0838 33.0358 58.0838 35.4652C58.0838 37.8946 56.3415 39.862 54.1903 39.862C52.0391 39.862 50.2968 37.8946 50.2968 35.4652C50.2968 33.0358 52.0391 31.0684 54.1903 31.0684Z" fill="white"/>
<path d="M54.1903 31.0303C56.3415 31.0303 58.0838 32.9978 58.0838 35.4271C58.0838 37.8565 56.3415 39.824 54.1903 39.824C52.0391 39.824 50.2968 37.8565 50.2968 35.4271C50.2968 32.9978 52.0391 31.0303 54.1903 31.0303Z" fill="white"/>
<path d="M54.1903 30.9927C56.3415 30.9927 58.0838 32.9602 58.0838 35.3895C58.0838 37.8189 56.3415 39.7864 54.1903 39.7864C52.0391 39.7864 50.2968 37.8189 50.2968 35.3895C50.2968 32.9602 52.0391 30.9927 54.1903 30.9927Z" fill="white"/>
<path d="M54.1903 30.9551C56.3415 30.9551 58.0838 32.9226 58.0838 35.3519C58.0838 37.7813 56.3415 39.7488 54.1903 39.7488C52.0391 39.7488 50.2968 37.7813 50.2968 35.3519C50.2968 32.9226 52.0391 30.9551 54.1903 30.9551Z" fill="white"/>
<path d="M54.1903 30.917C56.3415 30.917 58.0838 32.8845 58.0838 35.3138C58.0838 37.7432 56.3415 39.7107 54.1903 39.7107C52.0391 39.7107 50.2968 37.7432 50.2968 35.3138C50.2968 32.8845 52.0391 30.917 54.1903 30.917Z" fill="white"/>
<path d="M54.1903 30.8794C56.3415 30.8794 58.0838 32.8469 58.0838 35.2762C58.0838 37.7056 56.3415 39.6731 54.1903 39.6731C52.0391 39.6731 50.2968 37.7056 50.2968 35.2762C50.2968 32.8469 52.0391 30.8794 54.1903 30.8794Z" fill="white"/>
<path d="M54.1903 30.8418C56.3415 30.8418 58.0838 32.8093 58.0838 35.2386C58.0838 37.668 56.3415 39.6355 54.1903 39.6355C52.0391 39.6355 50.2968 37.668 50.2968 35.2386C50.2968 32.8093 52.0391 30.8418 54.1903 30.8418Z" fill="white"/>
<path d="M54.1903 30.8042C56.3415 30.8042 58.0838 32.7717 58.0838 35.201C58.0838 37.6304 56.3415 39.5979 54.1903 39.5979C52.0391 39.5979 50.2968 37.6304 50.2968 35.201C50.2968 32.7717 52.0391 30.8042 54.1903 30.8042Z" fill="white"/>
<path d="M54.1903 30.7661C56.3415 30.7661 58.0838 32.7336 58.0838 35.163C58.0838 37.5923 56.3415 39.5598 54.1903 39.5598C52.0391 39.5598 50.2968 37.5923 50.2968 35.163C50.2968 32.7336 52.0391 30.7661 54.1903 30.7661Z" fill="white"/>
<path d="M54.1903 30.7285C56.3415 30.7285 58.0838 32.696 58.0838 35.1254C58.0838 37.5547 56.3415 39.5222 54.1903 39.5222C52.0391 39.5222 50.2968 37.5547 50.2968 35.1254C50.2968 32.696 52.0391 30.7285 54.1903 30.7285Z" fill="white"/>
<path d="M54.1903 30.6929C56.3415 30.6929 58.0838 32.6603 58.0838 35.0897C58.0838 37.5191 56.3415 39.4866 54.1903 39.4866C52.0391 39.4866 50.2968 37.5191 50.2968 35.0897C50.2968 32.6603 52.0391 30.6929 54.1903 30.6929Z" fill="white"/>
<path d="M54.1903 30.6553C56.3415 30.6553 58.0838 32.6227 58.0838 35.0521C58.0838 37.4815 56.3415 39.449 54.1903 39.449C52.0391 39.449 50.2968 37.4815 50.2968 35.0521C50.2968 32.6227 52.0391 30.6553 54.1903 30.6553Z" fill="white"/>
<path d="M54.1903 30.6177C56.3415 30.6177 58.0838 32.5852 58.0838 35.0145C58.0838 37.4439 56.3415 39.4114 54.1903 39.4114C52.0391 39.4114 50.2968 37.4439 50.2968 35.0145C50.2968 32.5852 52.0391 30.6177 54.1903 30.6177Z" fill="white"/>
<path d="M54.1903 30.5796C56.3415 30.5796 58.0838 32.5471 58.0838 34.9764C58.0838 37.4058 56.3415 39.3733 54.1903 39.3733C52.0391 39.3733 50.2968 37.4058 50.2968 34.9764C50.2968 32.5471 52.0391 30.5796 54.1903 30.5796Z" fill="white"/>
<path d="M54.1903 30.542C56.3415 30.542 58.0838 32.5095 58.0838 34.9388C58.0838 37.3682 56.3415 39.3357 54.1903 39.3357C52.0391 39.3357 50.2968 37.3682 50.2968 34.9388C50.2968 32.5095 52.0391 30.542 54.1903 30.542Z" fill="white"/>
<path d="M54.1903 30.5044C56.3415 30.5044 58.0838 32.4719 58.0838 34.9012C58.0838 37.3306 56.3415 39.2981 54.1903 39.2981C52.0391 39.2981 50.2968 37.3306 50.2968 34.9012C50.2968 32.4719 52.0391 30.5044 54.1903 30.5044Z" fill="white"/>
<path d="M54.1903 30.4663C56.3415 30.4663 58.0838 32.4338 58.0838 34.8632C58.0838 37.2925 56.3415 39.26 54.1903 39.26C52.0391 39.26 50.2968 37.2925 50.2968 34.8632C50.2968 32.4338 52.0391 30.4663 54.1903 30.4663Z" fill="white"/>
<path d="M54.1903 30.4287C56.3415 30.4287 58.0838 32.3962 58.0838 34.8256C58.0838 37.2549 56.3415 39.2224 54.1903 39.2224C52.0391 39.2224 50.2968 37.2549 50.2968 34.8256C50.2968 32.3962 52.0391 30.4287 54.1903 30.4287Z" fill="white"/>
<path d="M54.1903 30.3911C56.3415 30.3911 58.0838 32.3586 58.0838 34.788C58.0838 37.2173 56.3415 39.1848 54.1903 39.1848C52.0391 39.1848 50.2968 37.2173 50.2968 34.788C50.2968 32.3586 52.0391 30.3911 54.1903 30.3911Z" fill="white"/>
<path d="M54.1903 30.353C56.3415 30.353 58.0838 32.3205 58.0838 34.7499C58.0838 37.1792 56.3415 39.1467 54.1903 39.1467C52.0391 39.1467 50.2968 37.1792 50.2968 34.7499C50.2968 32.3205 52.0391 30.353 54.1903 30.353Z" fill="white"/>
<path d="M54.1903 30.3154C56.3415 30.3154 58.0838 32.2829 58.0838 34.7123C58.0838 37.1416 56.3415 39.1091 54.1903 39.1091C52.0391 39.1091 50.2968 37.1416 50.2968 34.7123C50.2968 32.2829 52.0391 30.3154 54.1903 30.3154Z" fill="white"/>
<path d="M54.1903 30.2778C56.3415 30.2778 58.0838 32.2453 58.0838 34.6747C58.0838 37.104 56.3415 39.0715 54.1903 39.0715C52.0391 39.0715 50.2968 37.104 50.2968 34.6747C50.2968 32.2453 52.0391 30.2778 54.1903 30.2778Z" fill="white"/>
<path d="M54.1903 30.2397C56.3415 30.2397 58.0838 32.2072 58.0838 34.6366C58.0838 37.066 56.3415 39.0334 54.1903 39.0334C52.0391 39.0334 50.2968 37.066 50.2968 34.6366C50.2968 32.2072 52.0391 30.2397 54.1903 30.2397Z" fill="white"/>
<path d="M54.1903 30.2021C56.3415 30.2021 58.0838 32.1696 58.0838 34.599C58.0838 37.0284 56.3415 38.9958 54.1903 38.9958C52.0391 38.9958 50.2968 37.0284 50.2968 34.599C50.2968 32.1696 52.0391 30.2021 54.1903 30.2021Z" fill="white"/>
<path d="M54.1903 30.1646C56.3415 30.1646 58.0838 32.132 58.0838 34.5614C58.0838 36.9908 56.3415 38.9582 54.1903 38.9582C52.0391 38.9582 50.2968 36.9908 50.2968 34.5614C50.2968 32.132 52.0391 30.1646 54.1903 30.1646Z" fill="white"/>
<path d="M54.1903 30.1265C56.3415 30.1265 58.0838 32.0939 58.0838 34.5233C58.0838 36.9527 56.3415 38.9202 54.1903 38.9202C52.0391 38.9202 50.2968 36.9527 50.2968 34.5233C50.2968 32.0939 52.0391 30.1265 54.1903 30.1265Z" fill="white"/>
<path d="M54.1903 30.0889C56.3415 30.0889 58.0838 32.0563 58.0838 34.4857C58.0838 36.9151 56.3415 38.8826 54.1903 38.8826C52.0391 38.8826 50.2968 36.9151 50.2968 34.4857C50.2968 32.0563 52.0391 30.0889 54.1903 30.0889Z" fill="white"/>
<path d="M54.1903 30.0513C56.3415 30.0513 58.0838 32.0187 58.0838 34.4481C58.0838 36.8775 56.3415 38.845 54.1903 38.845C52.0391 38.845 50.2968 36.8775 50.2968 34.4481C50.2968 32.0187 52.0391 30.0513 54.1903 30.0513Z" fill="white"/>
<path d="M54.1903 30.0137C56.3415 30.0137 58.0838 31.9811 58.0838 34.4105C58.0838 36.8399 56.3415 38.8074 54.1903 38.8074C52.0391 38.8074 50.2968 36.8399 50.2968 34.4105C50.2968 31.9811 52.0391 30.0137 54.1903 30.0137Z" fill="white"/>
<path d="M54.1903 29.9756C56.3415 29.9756 58.0838 31.9431 58.0838 34.3724C58.0838 36.8018 56.3415 38.7693 54.1903 38.7693C52.0391 38.7693 50.2968 36.8018 50.2968 34.3724C50.2968 31.9431 52.0391 29.9756 54.1903 29.9756Z" fill="white"/>
<path d="M54.1903 29.938C56.3415 29.938 58.0838 31.9055 58.0838 34.3348C58.0838 36.7642 56.3415 38.7317 54.1903 38.7317C52.0391 38.7317 50.2968 36.7642 50.2968 34.3348C50.2968 31.9055 52.0391 29.938 54.1903 29.938Z" fill="white"/>
<path d="M54.1903 29.9004C56.3415 29.9004 58.0838 31.8679 58.0838 34.2972C58.0838 36.7266 56.3415 38.6941 54.1903 38.6941C52.0391 38.6941 50.2968 36.7266 50.2968 34.2972C50.2968 31.8679 52.0391 29.9004 54.1903 29.9004Z" fill="white"/>
<path d="M54.1903 29.8623C56.3415 29.8623 58.0838 31.8298 58.0838 34.2591C58.0838 36.6885 56.3415 38.656 54.1903 38.656C52.0391 38.656 50.2968 36.6885 50.2968 34.2591C50.2968 31.8298 52.0391 29.8623 54.1903 29.8623Z" fill="white"/>
<path d="M54.1903 29.8247C56.3415 29.8247 58.0838 31.7922 58.0838 34.2216C58.0838 36.6509 56.3415 38.6184 54.1903 38.6184C52.0391 38.6184 50.2968 36.6509 50.2968 34.2216C50.2968 31.7922 52.0391 29.8247 54.1903 29.8247Z" fill="white"/>
<path d="M54.1903 29.7871C56.3415 29.7871 58.0838 31.7546 58.0838 34.184C58.0838 36.6133 56.3415 38.5808 54.1903 38.5808C52.0391 38.5808 50.2968 36.6133 50.2968 34.184C50.2968 31.7546 52.0391 29.7871 54.1903 29.7871Z" fill="white"/>
<path d="M54.1903 29.749C56.3415 29.749 58.0838 31.7165 58.0838 34.1459C58.0838 36.5752 56.3415 38.5427 54.1903 38.5427C52.0391 38.5427 50.2968 36.5752 50.2968 34.1459C50.2968 31.7165 52.0391 29.749 54.1903 29.749Z" fill="white"/>
<path d="M54.1903 29.7114C56.3415 29.7114 58.0838 31.6789 58.0838 34.1083C58.0838 36.5376 56.3415 38.5051 54.1903 38.5051C52.0391 38.5051 50.2968 36.5376 50.2968 34.1083C50.2968 31.6789 52.0391 29.7114 54.1903 29.7114Z" fill="white"/>
<path d="M43.6277 33.6332C43.6277 36.8709 41.1854 39.4934 38.1742 39.4934C35.163 39.4934 32.7229 36.8709 32.7229 33.6332C32.7229 30.3955 35.163 27.7729 38.1742 27.7729C41.1854 27.7729 43.6277 30.3933 43.6277 33.6332Z" fill="white"/>
<path d="M43.6277 33.5956C43.6277 36.8333 41.1854 39.4558 38.1742 39.4558C35.163 39.4558 32.7229 36.8333 32.7229 33.5956C32.7229 30.3579 35.163 27.7354 38.1742 27.7354C41.1854 27.7354 43.6277 30.3557 43.6277 33.5956Z" fill="white"/>
<path d="M43.6277 33.5575C43.6277 36.7952 41.1854 39.4177 38.1742 39.4177C35.163 39.4177 32.7229 36.7952 32.7229 33.5575C32.7229 30.3198 35.163 27.6973 38.1742 27.6973C41.1854 27.6973 43.6277 30.3176 43.6277 33.5575Z" fill="white"/>
<path d="M43.6277 33.5199C43.6277 36.7576 41.1854 39.3801 38.1742 39.3801C35.163 39.3801 32.7229 36.7576 32.7229 33.5199C32.7229 30.2822 35.163 27.6597 38.1742 27.6597C41.1854 27.6597 43.6277 30.28 43.6277 33.5199Z" fill="white"/>
<path d="M43.6277 33.4823C43.6277 36.72 41.1854 39.3425 38.1742 39.3425C35.163 39.3425 32.7229 36.72 32.7229 33.4823C32.7229 30.2446 35.163 27.6221 38.1742 27.6221C41.1854 27.6221 43.6277 30.2424 43.6277 33.4823Z" fill="white"/>
<path d="M43.6277 33.4442C43.6277 36.6819 41.1854 39.3045 38.1742 39.3045C35.163 39.3045 32.7229 36.6819 32.7229 33.4442C32.7229 30.2065 35.163 27.584 38.1742 27.584C41.1854 27.584 43.6277 30.2043 43.6277 33.4442Z" fill="white"/>
<path d="M43.6277 33.4066C43.6277 36.6443 41.1854 39.2669 38.1742 39.2669C35.163 39.2669 32.7229 36.6443 32.7229 33.4066C32.7229 30.1689 35.163 27.5464 38.1742 27.5464C41.1854 27.5464 43.6277 30.1667 43.6277 33.4066Z" fill="white"/>
<path d="M43.6277 33.369C43.6277 36.6067 41.1854 39.2293 38.1742 39.2293C35.163 39.2293 32.7229 36.6067 32.7229 33.369C32.7229 30.1314 35.163 27.5088 38.1742 27.5088C41.1854 27.5088 43.6277 30.1291 43.6277 33.369Z" fill="white"/>
<path d="M43.6277 33.3309C43.6277 36.5686 41.1854 39.1912 38.1742 39.1912C35.163 39.1912 32.7229 36.5686 32.7229 33.3309C32.7229 30.0933 35.163 27.4707 38.1742 27.4707C41.1854 27.4707 43.6277 30.091 43.6277 33.3309Z" fill="white"/>
<path d="M43.6277 33.2933C43.6277 36.531 41.1854 39.1536 38.1742 39.1536C35.163 39.1536 32.7229 36.531 32.7229 33.2933C32.7229 30.0557 35.163 27.4331 38.1742 27.4331C41.1854 27.4331 43.6277 30.0534 43.6277 33.2933Z" fill="white"/>
<path d="M43.6277 33.2557C43.6277 36.4934 41.1854 39.116 38.1742 39.116C35.163 39.116 32.7229 36.4934 32.7229 33.2557C32.7229 30.0181 35.163 27.3955 38.1742 27.3955C41.1854 27.3955 43.6277 30.0158 43.6277 33.2557Z" fill="white"/>
<path d="M43.6277 33.2181C43.6277 36.4558 41.1854 39.0784 38.1742 39.0784C35.163 39.0784 32.7229 36.4558 32.7229 33.2181C32.7229 29.9805 35.163 27.3579 38.1742 27.3579C41.1854 27.3579 43.6277 29.9783 43.6277 33.2181Z" fill="white"/>
<path d="M43.6277 33.1801C43.6277 36.4177 41.1854 39.0403 38.1742 39.0403C35.163 39.0403 32.7229 36.4177 32.7229 33.1801C32.7229 29.9424 35.163 27.3198 38.1742 27.3198C41.1854 27.3198 43.6277 29.9402 43.6277 33.1801Z" fill="white"/>
<path d="M43.6277 33.1425C43.6277 36.3801 41.1854 39.0027 38.1742 39.0027C35.163 39.0027 32.7229 36.3801 32.7229 33.1425C32.7229 29.9048 35.163 27.2822 38.1742 27.2822C41.1854 27.2822 43.6277 29.9026 43.6277 33.1425Z" fill="white"/>
<path d="M43.6277 33.1049C43.6277 36.3425 41.1854 38.9651 38.1742 38.9651C35.163 38.9651 32.7229 36.3425 32.7229 33.1049C32.7229 29.8672 35.163 27.2446 38.1742 27.2446C41.1854 27.2446 43.6277 29.865 43.6277 33.1049Z" fill="white"/>
<path d="M43.6277 33.0668C43.6277 36.3045 41.1854 38.927 38.1742 38.927C35.163 38.927 32.7229 36.3045 32.7229 33.0668C32.7229 29.8291 35.163 27.2065 38.1742 27.2065C41.1854 27.2065 43.6277 29.8269 43.6277 33.0668Z" fill="white"/>
<path d="M43.6277 33.0292C43.6277 36.2669 41.1854 38.8894 38.1742 38.8894C35.163 38.8894 32.7229 36.2669 32.7229 33.0292C32.7229 29.7915 35.163 27.1689 38.1742 27.1689C41.1854 27.1689 43.6277 29.7893 43.6277 33.0292Z" fill="white"/>
<path d="M43.6277 32.9935C43.6277 36.2312 41.1854 38.8538 38.1742 38.8538C35.163 38.8538 32.7229 36.2312 32.7229 32.9935C32.7229 29.7559 35.163 27.1333 38.1742 27.1333C41.1854 27.1333 43.6277 29.7536 43.6277 32.9935Z" fill="white"/>
<path d="M43.6277 32.9559C43.6277 36.1936 41.1854 38.8162 38.1742 38.8162C35.163 38.8162 32.7229 36.1936 32.7229 32.9559C32.7229 29.7183 35.163 27.0957 38.1742 27.0957C41.1854 27.0957 43.6277 29.716 43.6277 32.9559Z" fill="white"/>
<path d="M43.6277 32.9183C43.6277 36.156 41.1854 38.7786 38.1742 38.7786C35.163 38.7786 32.7229 36.156 32.7229 32.9183C32.7229 29.6807 35.163 27.0581 38.1742 27.0581C41.1854 27.0581 43.6277 29.6784 43.6277 32.9183Z" fill="white"/>
<path d="M43.6277 32.8803C43.6277 36.1179 41.1854 38.7405 38.1742 38.7405C35.163 38.7405 32.7229 36.1179 32.7229 32.8803C32.7229 29.6426 35.163 27.02 38.1742 27.02C41.1854 27.02 43.6277 29.6404 43.6277 32.8803Z" fill="white"/>
<path d="M43.6277 32.8427C43.6277 36.0803 41.1854 38.7029 38.1742 38.7029C35.163 38.7029 32.7229 36.0803 32.7229 32.8427C32.7229 29.605 35.163 26.9824 38.1742 26.9824C41.1854 26.9824 43.6277 29.6028 43.6277 32.8427Z" fill="white"/>
<path d="M43.6277 32.8051C43.6277 36.0427 41.1854 38.6653 38.1742 38.6653C35.163 38.6653 32.7229 36.0427 32.7229 32.8051C32.7229 29.5674 35.163 26.9448 38.1742 26.9448C41.1854 26.9448 43.6277 29.5652 43.6277 32.8051Z" fill="white"/>
<path d="M43.6277 32.767C43.6277 36.0047 41.1854 38.6272 38.1742 38.6272C35.163 38.6272 32.7229 36.0047 32.7229 32.767C32.7229 29.5293 35.163 26.9067 38.1742 26.9067C41.1854 26.9067 43.6277 29.5271 43.6277 32.767Z" fill="white"/>
<path d="M43.6277 32.7294C43.6277 35.9671 41.1854 38.5896 38.1742 38.5896C35.163 38.5896 32.7229 35.9671 32.7229 32.7294C32.7229 29.4917 35.163 26.8691 38.1742 26.8691C41.1854 26.8691 43.6277 29.4895 43.6277 32.7294Z" fill="white"/>
<path d="M43.6277 32.6918C43.6277 35.9295 41.1854 38.552 38.1742 38.552C35.163 38.552 32.7229 35.9295 32.7229 32.6918C32.7229 29.4541 35.163 26.8315 38.1742 26.8315C41.1854 26.8315 43.6277 29.4519 43.6277 32.6918Z" fill="white"/>
<path d="M43.6277 32.6537C43.6277 35.8914 41.1854 38.5139 38.1742 38.5139C35.163 38.5139 32.7229 35.8914 32.7229 32.6537C32.7229 29.416 35.163 26.7935 38.1742 26.7935C41.1854 26.7935 43.6277 29.4138 43.6277 32.6537Z" fill="white"/>
<path d="M43.6277 32.6161C43.6277 35.8538 41.1854 38.4763 38.1742 38.4763C35.163 38.4763 32.7229 35.8538 32.7229 32.6161C32.7229 29.3784 35.163 26.7559 38.1742 26.7559C41.1854 26.7559 43.6277 29.3762 43.6277 32.6161Z" fill="white"/>
<path d="M43.6277 32.5785C43.6277 35.8162 41.1854 38.4387 38.1742 38.4387C35.163 38.4387 32.7229 35.8162 32.7229 32.5785C32.7229 29.3408 35.163 26.7183 38.1742 26.7183C41.1854 26.7183 43.6277 29.3386 43.6277 32.5785Z" fill="white"/>
<path d="M43.6277 32.5404C43.6277 35.7781 41.1854 38.4007 38.1742 38.4007C35.163 38.4007 32.7229 35.7781 32.7229 32.5404C32.7229 29.3027 35.163 26.6802 38.1742 26.6802C41.1854 26.6802 43.6277 29.3005 43.6277 32.5404Z" fill="white"/>
<path d="M43.6277 32.5028C43.6277 35.7405 41.1854 38.3631 38.1742 38.3631C35.163 38.3631 32.7229 35.7405 32.7229 32.5028C32.7229 29.2651 35.163 26.6426 38.1742 26.6426C41.1854 26.6426 43.6277 29.2629 43.6277 32.5028Z" fill="white"/>
<path d="M43.6277 32.4652C43.6277 35.7029 41.1854 38.3255 38.1742 38.3255C35.163 38.3255 32.7229 35.7029 32.7229 32.4652C32.7229 29.2275 35.163 26.605 38.1742 26.605C41.1854 26.605 43.6277 29.2253 43.6277 32.4652Z" fill="white"/>
<path d="M43.6277 32.4276C43.6277 35.6653 41.1854 38.2879 38.1742 38.2879C35.163 38.2879 32.7229 35.6653 32.7229 32.4276C32.7229 29.1899 35.163 26.5674 38.1742 26.5674C41.1854 26.5674 43.6277 29.1877 43.6277 32.4276Z" fill="white"/>
<path d="M43.6277 32.3895C43.6277 35.6272 41.1854 38.2498 38.1742 38.2498C35.163 38.2498 32.7229 35.6272 32.7229 32.3895C32.7229 29.1519 35.163 26.5293 38.1742 26.5293C41.1854 26.5293 43.6277 29.1496 43.6277 32.3895Z" fill="white"/>
<path d="M43.6277 32.3519C43.6277 35.5896 41.1854 38.2122 38.1742 38.2122C35.163 38.2122 32.7229 35.5896 32.7229 32.3519C32.7229 29.1143 35.163 26.4917 38.1742 26.4917C41.1854 26.4917 43.6277 29.112 43.6277 32.3519Z" fill="white"/>
<path d="M43.6277 32.3143C43.6277 35.552 41.1854 38.1746 38.1742 38.1746C35.163 38.1746 32.7229 35.552 32.7229 32.3143C32.7229 29.0767 35.163 26.4541 38.1742 26.4541C41.1854 26.4541 43.6277 29.0744 43.6277 32.3143Z" fill="white"/>
<path d="M43.6277 32.2763C43.6277 35.5139 41.1854 38.1365 38.1742 38.1365C35.163 38.1365 32.7229 35.5139 32.7229 32.2763C32.7229 29.0386 35.163 26.416 38.1742 26.416C41.1854 26.416 43.6277 29.0364 43.6277 32.2763Z" fill="white"/>
<path d="M43.6277 32.2387C43.6277 35.4763 41.1854 38.0989 38.1742 38.0989C35.163 38.0989 32.7229 35.4763 32.7229 32.2387C32.7229 29.001 35.163 26.3784 38.1742 26.3784C41.1854 26.3784 43.6277 28.9988 43.6277 32.2387Z" fill="white"/>
<path d="M43.6277 32.2011C43.6277 35.4387 41.1854 38.0613 38.1742 38.0613C35.163 38.0613 32.7229 35.4387 32.7229 32.2011C32.7229 28.9634 35.163 26.3408 38.1742 26.3408C41.1854 26.3408 43.6277 28.9612 43.6277 32.2011Z" fill="white"/>
<path d="M43.6277 32.163C43.6277 35.4006 41.1854 38.0232 38.1742 38.0232C35.163 38.0232 32.7229 35.4006 32.7229 32.163C32.7229 28.9253 35.163 26.3027 38.1742 26.3027C41.1854 26.3027 43.6277 28.9231 43.6277 32.163Z" fill="white"/>
<path d="M43.6277 32.1254C43.6277 35.363 41.1854 37.9856 38.1742 37.9856C35.163 37.9856 32.7229 35.363 32.7229 32.1254C32.7229 28.8877 35.163 26.2651 38.1742 26.2651C41.1854 26.2651 43.6277 28.8855 43.6277 32.1254Z" fill="white"/>
<path d="M54.1903 29.7114C56.3415 29.7114 58.0838 31.6789 58.0838 34.1083C58.0838 36.5376 56.3415 38.5051 54.1903 38.5051C52.0391 38.5051 50.2968 36.5376 50.2968 34.1083C50.2968 31.6789 52.0391 29.7114 54.1903 29.7114Z" fill="url(#paint1_linear_98_8340)"/>
<path d="M43.6277 32.1254C43.6277 35.363 41.1854 37.9856 38.1742 37.9856C35.163 37.9856 32.7229 35.363 32.7229 32.1254C32.7229 28.8877 35.163 26.2651 38.1742 26.2651C41.1854 26.2651 43.6277 28.8855 43.6277 32.1254Z" fill="url(#paint2_linear_98_8340)"/>
<path d="M57.5038 46.1201C57.5038 50.97 52.2147 55.107 45.6922 55.107C39.1698 55.107 33.8829 50.97 33.8829 46.1201C33.8829 46.1201 39.5054 47.5391 45.6922 47.5391C51.8791 47.5391 57.5038 46.1201 57.5038 46.1201Z" fill="white"/>
<path d="M57.5038 46.082C57.5038 50.9319 52.2147 55.0689 45.6922 55.0689C39.1698 55.0689 33.8829 50.9319 33.8829 46.082C33.8829 46.082 39.5054 47.501 45.6922 47.501C51.8791 47.501 57.5038 46.082 57.5038 46.082Z" fill="white"/>
<path d="M57.5038 46.0444C57.5038 50.8943 52.2147 55.0313 45.6922 55.0313C39.1698 55.0313 33.8829 50.8943 33.8829 46.0444C33.8829 46.0444 39.5054 47.4634 45.6922 47.4634C51.8791 47.4634 57.5038 46.0444 57.5038 46.0444Z" fill="white"/>
<path d="M57.5038 46.0068C57.5038 50.8567 52.2147 54.9937 45.6922 54.9937C39.1698 54.9937 33.8829 50.8567 33.8829 46.0068C33.8829 46.0068 39.5054 47.4258 45.6922 47.4258C51.8791 47.4258 57.5038 46.0068 57.5038 46.0068Z" fill="white"/>
<path d="M57.5038 45.9688C57.5038 50.8186 52.2147 54.9556 45.6922 54.9556C39.1698 54.9556 33.8829 50.8186 33.8829 45.9688C33.8829 45.9688 39.5054 47.3877 45.6922 47.3877C51.8791 47.3877 57.5038 45.9688 57.5038 45.9688Z" fill="white"/>
<path d="M57.5038 45.9312C57.5038 50.781 52.2147 54.918 45.6922 54.918C39.1698 54.918 33.8829 50.781 33.8829 45.9312C33.8829 45.9312 39.5054 47.3501 45.6922 47.3501C51.8791 47.3501 57.5038 45.9312 57.5038 45.9312Z" fill="white"/>
<path d="M57.5038 45.8936C57.5038 50.7434 52.2147 54.8804 45.6922 54.8804C39.1698 54.8804 33.8829 50.7434 33.8829 45.8936C33.8829 45.8936 39.5054 47.3125 45.6922 47.3125C51.8791 47.3125 57.5038 45.8936 57.5038 45.8936Z" fill="white"/>
<path d="M57.5038 45.856C57.5038 50.7058 52.2147 54.8428 45.6922 54.8428C39.1698 54.8428 33.8829 50.7058 33.8829 45.856C33.8829 45.856 39.5054 47.2749 45.6922 47.2749C51.8791 47.2749 57.5038 45.856 57.5038 45.856Z" fill="white"/>
<path d="M57.5038 45.8179C57.5038 50.6677 52.2147 54.8048 45.6922 54.8048C39.1698 54.8048 33.8829 50.6677 33.8829 45.8179C33.8829 45.8179 39.5054 47.2369 45.6922 47.2369C51.8791 47.2369 57.5038 45.8179 57.5038 45.8179Z" fill="white"/>
<path d="M57.5038 45.7803C57.5038 50.6301 52.2147 54.7672 45.6922 54.7672C39.1698 54.7672 33.8829 50.6301 33.8829 45.7803C33.8829 45.7803 39.5054 47.1993 45.6922 47.1993C51.8791 47.1993 57.5038 45.7803 57.5038 45.7803Z" fill="white"/>
<path d="M57.5038 45.7427C57.5038 50.5925 52.2147 54.7296 45.6922 54.7296C39.1698 54.7296 33.8829 50.5925 33.8829 45.7427C33.8829 45.7427 39.5054 47.1617 45.6922 47.1617C51.8791 47.1617 57.5038 45.7427 57.5038 45.7427Z" fill="white"/>
<path d="M57.5038 45.7046C57.5038 50.5544 52.2147 54.6915 45.6922 54.6915C39.1698 54.6915 33.8829 50.5544 33.8829 45.7046C33.8829 45.7046 39.5054 47.1236 45.6922 47.1236C51.8791 47.1236 57.5038 45.7046 57.5038 45.7046Z" fill="white"/>
<path d="M57.5038 45.667C57.5038 50.5168 52.2147 54.6539 45.6922 54.6539C39.1698 54.6539 33.8829 50.5168 33.8829 45.667C33.8829 45.667 39.5054 47.086 45.6922 47.086C51.8791 47.086 57.5038 45.667 57.5038 45.667Z" fill="white"/>
<path d="M57.5038 45.6294C57.5038 50.4792 52.2147 54.6163 45.6922 54.6163C39.1698 54.6163 33.8829 50.4792 33.8829 45.6294C33.8829 45.6294 39.5054 47.0484 45.6922 47.0484C51.8791 47.0484 57.5038 45.6294 57.5038 45.6294Z" fill="white"/>
<path d="M57.5038 45.5913C57.5038 50.4412 52.2147 54.5782 45.6922 54.5782C39.1698 54.5782 33.8829 50.4412 33.8829 45.5913C33.8829 45.5913 39.5054 47.0103 45.6922 47.0103C51.8791 47.0103 57.5038 45.5913 57.5038 45.5913Z" fill="white"/>
<path d="M57.5038 45.5537C57.5038 50.4036 52.2147 54.5406 45.6922 54.5406C39.1698 54.5406 33.8829 50.4036 33.8829 45.5537C33.8829 45.5537 39.5054 46.9727 45.6922 46.9727C51.8791 46.9727 57.5038 45.5537 57.5038 45.5537Z" fill="white"/>
<path d="M57.5038 45.5181C57.5038 50.3679 52.2147 54.5049 45.6922 54.5049C39.1698 54.5049 33.8829 50.3679 33.8829 45.5181C33.8829 45.5181 39.5054 46.937 45.6922 46.937C51.8791 46.937 57.5038 45.5181 57.5038 45.5181Z" fill="white"/>
<path d="M57.5038 45.4805C57.5038 50.3303 52.2147 54.4674 45.6922 54.4674C39.1698 54.4674 33.8829 50.3303 33.8829 45.4805C33.8829 45.4805 39.5054 46.8994 45.6922 46.8994C51.8791 46.8994 57.5038 45.4805 57.5038 45.4805Z" fill="white"/>
<path d="M57.5038 45.4429C57.5038 50.2927 52.2147 54.4298 45.6922 54.4298C39.1698 54.4298 33.8829 50.2927 33.8829 45.4429C33.8829 45.4429 39.5054 46.8619 45.6922 46.8619C51.8791 46.8619 57.5038 45.4429 57.5038 45.4429Z" fill="white"/>
<path d="M57.5038 45.4048C57.5038 50.2546 52.2147 54.3917 45.6922 54.3917C39.1698 54.3917 33.8829 50.2546 33.8829 45.4048C33.8829 45.4048 39.5054 46.8238 45.6922 46.8238C51.8791 46.8238 57.5038 45.4048 57.5038 45.4048Z" fill="white"/>
<path d="M57.5038 45.3672C57.5038 50.217 52.2147 54.3541 45.6922 54.3541C39.1698 54.3541 33.8829 50.217 33.8829 45.3672C33.8829 45.3672 39.5054 46.7862 45.6922 46.7862C51.8791 46.7862 57.5038 45.3672 57.5038 45.3672Z" fill="white"/>
<path d="M57.5038 45.3296C57.5038 50.1794 52.2147 54.3165 45.6922 54.3165C39.1698 54.3165 33.8829 50.1794 33.8829 45.3296C33.8829 45.3296 39.5054 46.7486 45.6922 46.7486C51.8791 46.7486 57.5038 45.3296 57.5038 45.3296Z" fill="white"/>
<path d="M57.5038 45.2915C57.5038 50.1414 52.2147 54.2784 45.6922 54.2784C39.1698 54.2784 33.8829 50.1414 33.8829 45.2915C33.8829 45.2915 39.5054 46.7105 45.6922 46.7105C51.8791 46.7105 57.5038 45.2915 57.5038 45.2915Z" fill="white"/>
<path d="M57.5038 45.2539C57.5038 50.1038 52.2147 54.2408 45.6922 54.2408C39.1698 54.2408 33.8829 50.1038 33.8829 45.2539C33.8829 45.2539 39.5054 46.6729 45.6922 46.6729C51.8791 46.6729 57.5038 45.2539 57.5038 45.2539Z" fill="white"/>
<path d="M57.5038 45.2163C57.5038 50.0662 52.2147 54.2032 45.6922 54.2032C39.1698 54.2032 33.8829 50.0662 33.8829 45.2163C33.8829 45.2163 39.5054 46.6353 45.6922 46.6353C51.8791 46.6353 57.5038 45.2163 57.5038 45.2163Z" fill="white"/>
<path d="M57.5038 45.1782C57.5038 50.0281 52.2147 54.1651 45.6922 54.1651C39.1698 54.1651 33.8829 50.0281 33.8829 45.1782C33.8829 45.1782 39.5054 46.5972 45.6922 46.5972C51.8791 46.5972 57.5038 45.1782 57.5038 45.1782Z" fill="white"/>
<path d="M57.5038 45.1406C57.5038 49.9905 52.2147 54.1275 45.6922 54.1275C39.1698 54.1275 33.8829 49.9905 33.8829 45.1406C33.8829 45.1406 39.5054 46.5596 45.6922 46.5596C51.8791 46.5596 57.5038 45.1406 57.5038 45.1406Z" fill="white"/>
<path d="M57.5038 45.103C57.5038 49.9529 52.2147 54.0899 45.6922 54.0899C39.1698 54.0899 33.8829 49.9529 33.8829 45.103C33.8829 45.103 39.5054 46.522 45.6922 46.522C51.8791 46.522 57.5038 45.103 57.5038 45.103Z" fill="white"/>
<path d="M57.5038 45.0649C57.5038 49.9148 52.2147 54.0518 45.6922 54.0518C39.1698 54.0518 33.8829 49.9148 33.8829 45.0649C33.8829 45.0649 39.5054 46.4839 45.6922 46.4839C51.8791 46.4839 57.5038 45.0649 57.5038 45.0649Z" fill="white"/>
<path d="M57.5038 45.0273C57.5038 49.8772 52.2147 54.0142 45.6922 54.0142C39.1698 54.0142 33.8829 49.8772 33.8829 45.0273C33.8829 45.0273 39.5054 46.4463 45.6922 46.4463C51.8791 46.4463 57.5038 45.0273 57.5038 45.0273Z" fill="white"/>
<path d="M57.5038 44.9897C57.5038 49.8396 52.2147 53.9766 45.6922 53.9766C39.1698 53.9766 33.8829 49.8396 33.8829 44.9897C33.8829 44.9897 39.5054 46.4087 45.6922 46.4087C51.8791 46.4087 57.5038 44.9897 57.5038 44.9897Z" fill="white"/>
<path d="M57.5038 44.9521C57.5038 49.802 52.2147 53.939 45.6922 53.939C39.1698 53.939 33.8829 49.802 33.8829 44.9521C33.8829 44.9521 39.5054 46.3711 45.6922 46.3711C51.8791 46.3711 57.5038 44.9521 57.5038 44.9521Z" fill="white"/>
<path d="M57.5038 44.9141C57.5038 49.7639 52.2147 53.9009 45.6922 53.9009C39.1698 53.9009 33.8829 49.7639 33.8829 44.9141C33.8829 44.9141 39.5054 46.333 45.6922 46.333C51.8791 46.333 57.5038 44.9141 57.5038 44.9141Z" fill="white"/>
<path d="M57.5038 44.8765C57.5038 49.7263 52.2147 53.8633 45.6922 53.8633C39.1698 53.8633 33.8829 49.7263 33.8829 44.8765C33.8829 44.8765 39.5054 46.2954 45.6922 46.2954C51.8791 46.2954 57.5038 44.8765 57.5038 44.8765Z" fill="white"/>
<path d="M57.5038 44.8389C57.5038 49.6887 52.2147 53.8257 45.6922 53.8257C39.1698 53.8257 33.8829 49.6887 33.8829 44.8389C33.8829 44.8389 39.5054 46.2578 45.6922 46.2578C51.8791 46.2578 57.5038 44.8389 57.5038 44.8389Z" fill="white"/>
<path d="M57.5038 44.8008C57.5038 49.6506 52.2147 53.7877 45.6922 53.7877C39.1698 53.7877 33.8829 49.6506 33.8829 44.8008C33.8829 44.8008 39.5054 46.2198 45.6922 46.2198C51.8791 46.2198 57.5038 44.8008 57.5038 44.8008Z" fill="white"/>
<path d="M57.5038 44.7632C57.5038 49.613 52.2147 53.7501 45.6922 53.7501C39.1698 53.7501 33.8829 49.613 33.8829 44.7632C33.8829 44.7632 39.5054 46.1822 45.6922 46.1822C51.8791 46.1822 57.5038 44.7632 57.5038 44.7632Z" fill="white"/>
<path d="M57.5038 44.7256C57.5038 49.5754 52.2147 53.7125 45.6922 53.7125C39.1698 53.7125 33.8829 49.5754 33.8829 44.7256C33.8829 44.7256 39.5054 46.1446 45.6922 46.1446C51.8791 46.1446 57.5038 44.7256 57.5038 44.7256Z" fill="white"/>
<path d="M57.5038 44.6875C57.5038 49.5374 52.2147 53.6744 45.6922 53.6744C39.1698 53.6744 33.8829 49.5374 33.8829 44.6875C33.8829 44.6875 39.5054 46.1065 45.6922 46.1065C51.8791 46.1065 57.5038 44.6875 57.5038 44.6875Z" fill="white"/>
<path d="M57.5038 44.6499C57.5038 49.4998 52.2147 53.6368 45.6922 53.6368C39.1698 53.6368 33.8829 49.4998 33.8829 44.6499C33.8829 44.6499 39.5054 46.0689 45.6922 46.0689C51.8791 46.0689 57.5038 44.6499 57.5038 44.6499Z" fill="white"/>
<path d="M57.5038 44.6123C57.5038 49.4622 52.2147 53.5992 45.6922 53.5992C39.1698 53.5992 33.8829 49.4622 33.8829 44.6123C33.8829 44.6123 39.5054 46.0313 45.6922 46.0313C51.8791 46.0313 57.5038 44.6123 57.5038 44.6123Z" fill="white"/>
<path d="M57.5038 44.5742C57.5038 49.4241 52.2147 53.5611 45.6922 53.5611C39.1698 53.5611 33.8829 49.4241 33.8829 44.5742C33.8829 44.5742 39.5054 45.9932 45.6922 45.9932C51.8791 45.9932 57.5038 44.5742 57.5038 44.5742Z" fill="white"/>
<path d="M57.5038 44.5366C57.5038 49.3865 52.2147 53.5235 45.6922 53.5235C39.1698 53.5235 33.8829 49.3865 33.8829 44.5366C33.8829 44.5366 39.5054 45.9556 45.6922 45.9556C51.8791 45.9556 57.5038 44.5366 57.5038 44.5366Z" fill="white"/>
<path d="M57.5038 44.499C57.5038 49.3489 52.2147 53.4859 45.6922 53.4859C39.1698 53.4859 33.8829 49.3489 33.8829 44.499C33.8829 44.499 39.5054 45.918 45.6922 45.918C51.8791 45.918 57.5038 44.499 57.5038 44.499Z" fill="white"/>
<path d="M57.5038 44.4609C57.5038 49.3108 52.2147 53.4478 45.6922 53.4478C39.1698 53.4478 33.8829 49.3108 33.8829 44.4609C33.8829 44.4609 39.5054 45.8799 45.6922 45.8799C51.8791 45.8799 57.5038 44.4609 57.5038 44.4609Z" fill="white"/>
<path d="M57.5038 44.4258C57.5038 49.2756 52.2147 53.4127 45.6922 53.4127C39.1698 53.4127 33.8829 49.2756 33.8829 44.4258C33.8829 44.4258 39.5054 45.8448 45.6922 45.8448C51.8791 45.8448 57.5038 44.4258 57.5038 44.4258Z" fill="white"/>
<path d="M57.5038 44.3877C57.5038 49.2375 52.2147 53.3746 45.6922 53.3746C39.1698 53.3746 33.8829 49.2375 33.8829 44.3877C33.8829 44.3877 39.5054 45.8067 45.6922 45.8067C51.8791 45.8067 57.5038 44.3877 57.5038 44.3877Z" fill="white"/>
<path d="M57.5038 44.3501C57.5038 49.1999 52.2147 53.337 45.6922 53.337C39.1698 53.337 33.8829 49.1999 33.8829 44.3501C33.8829 44.3501 39.5054 45.7691 45.6922 45.7691C51.8791 45.7691 57.5038 44.3501 57.5038 44.3501Z" fill="white"/>
<path d="M57.5038 44.3125C57.5038 49.1624 52.2147 53.2994 45.6922 53.2994C39.1698 53.2994 33.8829 49.1624 33.8829 44.3125C33.8829 44.3125 39.5054 45.7315 45.6922 45.7315C51.8791 45.7315 57.5038 44.3125 57.5038 44.3125Z" fill="white"/>
<path d="M57.5038 44.2744C57.5038 49.1243 52.2147 53.2613 45.6922 53.2613C39.1698 53.2613 33.8829 49.1243 33.8829 44.2744C33.8829 44.2744 39.5054 45.6934 45.6922 45.6934C51.8791 45.6934 57.5038 44.2744 57.5038 44.2744Z" fill="white"/>
<path d="M57.5038 44.2368C57.5038 49.0867 52.2147 53.2237 45.6922 53.2237C39.1698 53.2237 33.8829 49.0867 33.8829 44.2368C33.8829 44.2368 39.5054 45.6558 45.6922 45.6558C51.8791 45.6558 57.5038 44.2368 57.5038 44.2368Z" fill="white"/>
<path d="M57.5038 44.1992C57.5038 49.0491 52.2147 53.1861 45.6922 53.1861C39.1698 53.1861 33.8829 49.0491 33.8829 44.1992C33.8829 44.1992 39.5054 45.6182 45.6922 45.6182C51.8791 45.6182 57.5038 44.1992 57.5038 44.1992Z" fill="white"/>
<path d="M57.5038 44.1616C57.5038 49.0115 52.2147 53.1485 45.6922 53.1485C39.1698 53.1485 33.8829 49.0115 33.8829 44.1616C33.8829 44.1616 39.5054 45.5806 45.6922 45.5806C51.8791 45.5806 57.5038 44.1616 57.5038 44.1616Z" fill="white"/>
<path d="M57.5038 44.1235C57.5038 48.9734 52.2147 53.1104 45.6922 53.1104C39.1698 53.1104 33.8829 48.9734 33.8829 44.1235C33.8829 44.1235 39.5054 45.5425 45.6922 45.5425C51.8791 45.5425 57.5038 44.1235 57.5038 44.1235Z" fill="white"/>
<path d="M57.5038 44.0859C57.5038 48.9358 52.2147 53.0728 45.6922 53.0728C39.1698 53.0728 33.8829 48.9358 33.8829 44.0859C33.8829 44.0859 39.5054 45.5049 45.6922 45.5049C51.8791 45.5049 57.5038 44.0859 57.5038 44.0859Z" fill="white"/>
<path d="M57.5038 44.0483C57.5038 48.8982 52.2147 53.0352 45.6922 53.0352C39.1698 53.0352 33.8829 48.8982 33.8829 44.0483C33.8829 44.0483 39.5054 45.4673 45.6922 45.4673C51.8791 45.4673 57.5038 44.0483 57.5038 44.0483Z" fill="white"/>
<path d="M57.5038 44.0103C57.5038 48.8601 52.2147 52.9971 45.6922 52.9971C39.1698 52.9971 33.8829 48.8601 33.8829 44.0103C33.8829 44.0103 39.5054 45.4292 45.6922 45.4292C51.8791 45.4292 57.5038 44.0103 57.5038 44.0103Z" fill="white"/>
<path d="M57.5038 43.9727C57.5038 48.8225 52.2147 52.9595 45.6922 52.9595C39.1698 52.9595 33.8829 48.8225 33.8829 43.9727C33.8829 43.9727 39.5054 45.3916 45.6922 45.3916C51.8791 45.3916 57.5038 43.9727 57.5038 43.9727Z" fill="white"/>
<path d="M57.5038 43.9351C57.5038 48.7849 52.2147 52.9219 45.6922 52.9219C39.1698 52.9219 33.8829 48.7849 33.8829 43.9351C33.8829 43.9351 39.5054 45.354 45.6922 45.354C51.8791 45.354 57.5038 43.9351 57.5038 43.9351Z" fill="white"/>
<path d="M57.5038 43.897C57.5038 48.7468 52.2147 52.8839 45.6922 52.8839C39.1698 52.8839 33.8829 48.7468 33.8829 43.897C33.8829 43.897 39.5054 45.316 45.6922 45.316C51.8791 45.316 57.5038 43.897 57.5038 43.897Z" fill="white"/>
<path d="M57.5038 43.8594C57.5038 48.7092 52.2147 52.8463 45.6922 52.8463C39.1698 52.8463 33.8829 48.7092 33.8829 43.8594C33.8829 43.8594 39.5054 45.2784 45.6922 45.2784C51.8791 45.2784 57.5038 43.8594 57.5038 43.8594Z" fill="white"/>
<path d="M57.5038 43.8594C57.5038 48.7092 52.2147 52.8463 45.6922 52.8463C39.1698 52.8463 33.8829 48.7092 33.8829 43.8594C33.8829 43.8594 39.5054 45.2784 45.6922 45.2784C51.8791 45.2784 57.5038 43.8594 57.5038 43.8594Z" fill="url(#paint3_linear_98_8340)"/>
<path d="M38.132 53.1837C38.132 47.8165 38.132 49.462 45.69 49.462C53.2481 49.462 53.2503 47.8143 53.2503 53.1837C53.2503 58.5532 49.8657 61.2468 45.69 61.2468C41.5143 61.2468 38.132 58.551 38.132 53.1837Z" fill="url(#paint4_linear_98_8340)"/>
<path opacity="0.8" d="M46.9123 49.4619L45.69 58.6686L44.47 49.4619H46.9123Z" fill="#9C1F24"/>
</g>
<defs>
<linearGradient id="paint0_linear_98_8340" x1="44.9989" y1="77" x2="44.9989" y2="12" gradientUnits="userSpaceOnUse">
<stop stop-color="#DEDEDE"/>
<stop offset="1" stop-color="#FCFCFC"/>
</linearGradient>
<linearGradient id="paint1_linear_98_8340" x1="54.1903" y1="38.5051" x2="54.1903" y2="29.7114" gradientUnits="userSpaceOnUse">
<stop stop-color="#474447"/>
<stop offset="1" stop-color="#0D0C0D"/>
</linearGradient>
<linearGradient id="paint2_linear_98_8340" x1="38.1764" y1="37.9856" x2="38.1764" y2="26.2651" gradientUnits="userSpaceOnUse">
<stop stop-color="#474447"/>
<stop offset="1" stop-color="#0D0C0D"/>
</linearGradient>
<linearGradient id="paint3_linear_98_8340" x1="45.6922" y1="52.8463" x2="45.6922" y2="43.8594" gradientUnits="userSpaceOnUse">
<stop stop-color="#474447"/>
<stop offset="1" stop-color="#0D0C0D"/>
</linearGradient>
<linearGradient id="paint4_linear_98_8340" x1="45.6923" y1="61.2491" x2="45.6923" y2="49.2244" gradientUnits="userSpaceOnUse">
<stop stop-color="#FF7BAC"/>
<stop offset="1" stop-color="#C1272D"/>
</linearGradient>
<clipPath id="clip0_98_8340">
<rect width="64" height="65" fill="white" transform="translate(13 12)"/>
</clipPath>
</defs>
</svg>
