<svg width="90" height="90" viewBox="0 0 90 90" fill="none" xmlns="http://www.w3.org/2000/svg">
<g clip-path="url(#clip0_98_8339)">
<path d="M28.6859 31.1205C28.3578 34.6173 28.1291 40.804 30.1907 43.4374C30.1907 43.4374 29.2195 36.6397 37.9168 28.1151C41.4169 24.6814 42.2257 20.0123 41.0059 16.5122C40.3099 14.5297 39.0438 12.8892 37.94 11.7468C37.2937 11.0694 37.7876 9.96022 38.7222 10.0001C44.3801 10.2525 53.5514 11.8298 57.4492 21.6263C59.1595 25.9267 59.2855 30.3733 58.4701 34.8896C57.953 37.7754 56.1168 44.1912 60.3063 44.9816C63.296 45.5461 64.7412 43.1651 65.3908 41.4516C65.6593 40.7376 66.5973 40.5616 67.1011 41.1294C72.1524 46.8844 72.5833 53.6655 71.5359 59.5002C69.5174 70.781 58.1121 78.9934 46.7831 78.9934C32.6302 78.9934 21.3642 70.8807 18.4441 56.196C17.2674 50.2683 17.864 38.5392 26.9889 30.2571C27.665 29.6361 28.7721 30.1873 28.6826 31.1205H28.6859Z" fill="#FFCC00"/>
<path d="M51.9572 52.2175C46.7401 45.4895 49.0768 37.8151 50.3562 34.7566C50.5286 34.3548 50.0679 33.9762 49.7066 34.222C47.4627 35.7529 42.8654 39.3493 40.7243 44.4169C37.8274 51.2644 38.0329 54.6185 39.7498 58.7097C40.7839 61.1771 39.5841 61.6985 38.9808 61.7914C38.3942 61.8844 37.8572 61.4926 37.4263 61.0841C36.1867 59.8919 35.3051 58.3809 34.8775 56.7139C34.7847 56.3586 34.3206 56.2589 34.1085 56.5545C32.501 58.7794 31.669 62.3493 31.6293 64.8732C31.5033 72.6771 37.9368 78.9999 45.7192 78.9999C55.5269 78.9999 62.673 68.1342 57.035 59.0484C55.4009 56.4051 53.863 54.6716 51.9572 52.2175Z" fill="#FF9955"/>
</g>
<defs>
<clipPath id="clip0_98_8339">
<rect width="54" height="69" fill="white" transform="translate(18 10)"/>
</clipPath>
</defs>
</svg>
