<svg width="90" height="90" viewBox="0 0 90 90" fill="none" xmlns="http://www.w3.org/2000/svg">
<g clip-path="url(#clip0_98_8342)">
<path d="M19.0229 9.83361L11.9703 8L13.95 13.4707C14.2858 14.0914 14.5527 14.7723 14.6871 15.4621L21.0096 32.4328L42.542 15.9462L19.0229 9.83361Z" fill="#CC6DAA"/>
<path d="M14.8444 14.8771C17.0645 14.4941 18.8532 12.9584 21.0662 12.5825C22.7489 12.297 22.0331 9.73273 20.361 10.0182C18.1409 10.396 16.3521 11.9317 14.1392 12.3129C12.4564 12.602 13.1723 15.1662 14.8444 14.8771Z" fill="#00B9C1"/>
<path d="M16.7374 20.3192C19.2067 19.03 21.6972 17.778 24.3644 16.9552C26.8249 16.1962 29.3189 15.5029 31.8341 14.9585C33.5045 14.5967 32.7957 12.0325 31.1289 12.3942C28.6066 12.9404 26.1338 13.6657 23.6592 14.391C20.7745 15.2369 18.0543 16.636 15.3994 18.0245C13.8828 18.8172 15.2226 21.1119 16.7374 20.321V20.3192Z" fill="#00B9C1"/>
<path d="M18.2823 24.0378C20.6773 23.2363 23.0724 22.2344 25.6194 22.3124C27.3304 22.3638 27.3251 19.7038 25.6194 19.6524C22.8125 19.5673 20.1983 20.5958 17.5788 21.4736C15.965 22.0145 16.6579 24.584 18.284 24.0378H18.2823Z" fill="#00B9C1"/>
<path d="M3.16617 58.1883C3.54619 58.9384 4.02166 59.63 4.61026 60.2312C5.11578 60.7472 5.97835 60.7401 6.48564 60.2312C7 59.7151 6.99116 58.8675 6.48564 58.3497C6.37782 58.2397 6.27353 58.128 6.17278 58.0128C6.12506 57.956 6.07733 57.8993 6.03138 57.8407C6.22404 58.0801 6.00309 57.7893 5.97658 57.7539C5.77861 57.4666 5.61246 57.158 5.45515 56.8459C5.12815 56.2004 4.23554 56.0196 3.64164 56.3689C2.99118 56.7519 2.83917 57.5411 3.16617 58.1883Z" fill="#26A9E0"/>
<path d="M76.7407 32.8708C76.5498 33.4578 76.4013 34.0572 76.2104 34.6441C75.9859 35.334 76.4649 36.0947 77.1366 36.2809C77.8578 36.4795 78.5436 36.0397 78.7681 35.3517C78.959 34.7647 79.1074 34.1653 79.2983 33.5784C79.5228 32.8886 79.0438 32.1278 78.3721 31.9416C77.651 31.743 76.9652 32.181 76.7407 32.8708Z" fill="#26A9E0"/>
<path d="M81.7676 74.4479C82.3809 74.7299 83.0049 74.8062 83.6748 74.8062C84.3977 74.8062 85.0005 74.2014 85.0005 73.4762C85.0005 72.7509 84.3977 72.1462 83.6748 72.1462C83.5069 72.1462 83.3407 72.1444 83.1728 72.1338C83.1215 72.1302 83.0685 72.1249 83.0173 72.1196C83.24 72.1533 83.2806 72.1568 83.1392 72.1302C83.0279 72.1089 82.7238 71.9724 83.1074 72.1497C82.4499 71.8483 81.6845 71.9564 81.2939 72.6267C80.9563 73.2048 81.1118 74.1447 81.7694 74.4462L81.7676 74.4479Z" fill="#26A9E0"/>
<path d="M50.2662 35.9246C50.6515 35.8218 51.0139 35.6657 51.378 35.5061C51.5141 35.4476 51.6466 35.382 51.781 35.3199C51.8446 35.2898 51.91 35.2596 51.9736 35.2312C51.6714 35.3678 51.9772 35.2348 52.0337 35.2153C52.7143 34.9741 53.1614 34.3144 52.9599 33.5785C52.7779 32.9171 52.0108 32.4081 51.3285 32.6493C50.9927 32.7681 50.6674 32.9171 50.344 33.0678C50.2962 33.0891 49.8667 33.2806 50.1425 33.1653C49.9533 33.2434 49.7571 33.3054 49.5592 33.3586C48.861 33.5466 48.4421 34.3003 48.633 34.9954C48.8256 35.6976 49.5662 36.1126 50.2644 35.9246H50.2662Z" fill="#26A9E0"/>
<path d="M16.2761 69.169C16.041 69.4049 15.8042 69.6425 15.5691 69.8784C15.0583 70.3909 15.0583 71.2474 15.5691 71.7599C16.0799 72.2723 16.9336 72.2723 17.4445 71.7599C17.6796 71.524 17.9164 71.2864 18.1515 71.0505C18.6623 70.538 18.6623 69.6815 18.1515 69.169C17.6407 68.6565 16.7869 68.6565 16.2761 69.169Z" fill="#FAAF40"/>
<path d="M67.0049 37.3557C67.233 37.5845 67.4592 37.8114 67.6589 38.065C67.59 37.9746 67.5211 37.8859 67.4521 37.7955C67.537 37.909 67.6148 38.0242 67.6819 38.1502C68.0178 38.7903 68.8927 38.9818 69.4954 38.6272C70.1388 38.2495 70.3085 37.4497 69.9709 36.8077C69.704 36.3006 69.2816 35.8768 68.8803 35.4742C68.3695 34.9617 67.5158 34.9617 67.0049 35.4742C66.4941 35.9867 66.4941 36.8432 67.0049 37.3557Z" fill="#FAAF40"/>
<path d="M37.5787 32.9524C37.6406 32.9861 37.6989 33.0233 37.7554 33.0659C37.6653 32.9967 37.5769 32.9276 37.4868 32.8584C37.5663 32.9258 37.6353 32.9985 37.6989 33.0801C37.63 32.9896 37.561 32.901 37.4921 32.8105C37.6193 32.9826 37.7148 33.1723 37.8102 33.362C38.1337 34.0093 39.0316 34.1866 39.6238 33.8391C40.276 33.456 40.4227 32.6687 40.0992 32.0196C39.827 31.4735 39.4682 30.9521 38.9167 30.656C38.2786 30.3137 37.4779 30.491 37.1032 31.133C36.7479 31.7412 36.9424 32.6119 37.5787 32.9524Z" fill="#FAAF40"/>
<path d="M84.7724 54.5868C84.9545 54.6755 85.1419 54.7553 85.3239 54.8422C85.437 54.8954 85.5449 54.9557 85.6527 55.0195C85.6951 55.0461 85.7375 55.0727 85.7782 55.1029C85.4689 54.8918 85.6668 55.0177 85.7411 55.0869C86.2643 55.587 87.0968 55.6083 87.6164 55.0869C88.1184 54.5833 88.1396 53.7055 87.6164 53.2054C87.1657 52.7745 86.6567 52.5546 86.1105 52.2886C85.4618 51.9712 84.6823 52.106 84.297 52.7656C83.9523 53.3561 84.1238 54.2676 84.7724 54.5851V54.5868Z" fill="#FAAF40"/>
<path d="M5.01854 77.9998H6.43258C7.15551 77.9998 7.75825 77.3951 7.75825 76.6698C7.75825 75.9445 7.15551 75.3398 6.43258 75.3398H5.01854C4.29561 75.3398 3.69287 75.9445 3.69287 76.6698C3.69287 77.3951 4.29561 77.9998 5.01854 77.9998Z" fill="#8BC53F"/>
<path d="M54.0717 26.9778C54.4306 27.5347 54.6639 28.1589 54.9555 28.7512C55.2754 29.402 56.1787 29.5758 56.769 29.2282C57.4248 28.8434 57.5644 28.0578 57.2445 27.4088C56.9529 26.8165 56.7195 26.1923 56.3607 25.6354C55.9683 25.029 55.1924 24.7789 54.5472 25.1584C53.9462 25.5113 53.6793 26.3696 54.0717 26.9778Z" fill="#8BC53F"/>
<path d="M76.9581 42.9364C76.3218 43.1616 75.7897 43.511 75.3125 43.988C74.8017 44.5005 74.8017 45.357 75.3125 45.8695C75.8233 46.382 76.6771 46.382 77.1879 45.8695C77.3063 45.7507 77.43 45.6372 77.5626 45.5325C77.4725 45.6017 77.3841 45.6709 77.2939 45.74C77.4654 45.6106 77.6474 45.5024 77.8454 45.4173C77.7394 45.4616 77.6351 45.5059 77.529 45.552C77.5732 45.5343 77.6174 45.5166 77.6634 45.5024C78.3439 45.2612 78.7911 44.6033 78.5895 43.8656C78.4075 43.2042 77.6404 42.6952 76.9581 42.9364Z" fill="#8BC53F"/>
<path d="M31.8854 43.1952C32.7497 43.3832 33.5451 43.7503 34.36 44.0819C35.0316 44.355 35.8164 43.791 35.9914 43.1526C36.2 42.3919 35.7351 41.789 35.0652 41.5159C34.2504 41.1843 33.455 40.8172 32.5907 40.6292C31.8854 40.4767 31.1589 40.8296 30.9592 41.5584C30.7754 42.227 31.1784 43.0409 31.8854 43.1952Z" fill="#8BC53F"/>
<path d="M14.2982 45.9918C14.2982 46.1177 14.2982 46.2436 14.2806 46.3695C14.2965 46.2525 14.3124 46.1337 14.3283 46.0166C14.3159 46.0911 14.2982 46.1603 14.2717 46.2312C14.3159 46.1248 14.3601 46.0202 14.4061 45.9138C14.3866 45.9546 14.3672 45.99 14.3424 46.0273C14.4114 45.9368 14.4803 45.8482 14.5492 45.7577C14.5209 45.795 14.4909 45.8251 14.4573 45.857C14.5475 45.7879 14.6358 45.7187 14.726 45.6495C14.6853 45.6815 14.6447 45.7063 14.6005 45.7311C13.9677 46.0787 13.768 46.9387 14.125 47.5505C14.498 48.1889 15.304 48.3751 15.9385 48.0276C16.4016 47.774 16.6597 47.3768 16.8435 46.898C16.9496 46.6213 16.9478 46.2879 16.9478 45.9936C16.9478 45.2683 16.3451 44.6636 15.6221 44.6636C14.8992 44.6636 14.2965 45.2683 14.2965 45.9936L14.2982 45.9918Z" fill="#8BC53F"/>
</g>
<defs>
<clipPath id="clip0_98_8342">
<rect width="85" height="70" fill="white" transform="translate(3 8)"/>
</clipPath>
</defs>
</svg>
