<svg width="90" height="90" viewBox="0 0 90 90" fill="none" xmlns="http://www.w3.org/2000/svg">
<g clip-path="url(#clip0_98_8334)">
<path d="M38.7484 36.7951C30.814 32.2132 21.0107 34.3402 16.855 41.5369C12.6992 48.7377 15.7607 58.2869 23.6951 62.8688C31.6295 67.4508 55.6459 63.9303 55.6459 63.9303C55.6459 63.9303 46.6869 41.373 38.7525 36.791L38.7484 36.7951Z" fill="#298AFF"/>
<path d="M43.0147 45.9633C33.3016 34.2257 25.732 38.4388 20.8427 40.824C30.1172 39.742 33.2156 39.9961 43.0147 45.9633Z" fill="#B7D7FF"/>
<path d="M66.3713 26.6517C64.7442 20.5739 58.9533 16.8444 53.4369 18.3239C47.9205 19.8034 44.7689 25.9263 46.4 32.0042C48.027 38.082 61.4 48.0328 61.4 48.0328C61.4 48.0328 68.0024 32.7296 66.3754 26.6517H66.3713Z" fill="#298AFF"/>
<path d="M63.9901 33.1763C64.9737 22.7583 59.2524 21.1313 55.7155 19.9141C60.7442 23.8936 62.1254 25.5206 63.9901 33.1763Z" fill="#B7D7FF"/>
</g>
<defs>
<clipPath id="clip0_98_8334">
<rect width="90" height="90" fill="white"/>
</clipPath>
</defs>
</svg>
