<?xml version="1.0" encoding="utf-8"?>
<!-- Generator: Adobe Illustrator 27.9.0, SVG Export Plug-In . SVG Version: 6.00 Build 0)  -->
<svg version="1.1" id="레이어_1" xmlns="http://www.w3.org/2000/svg" xmlns:xlink="http://www.w3.org/1999/xlink" x="0px"
	 y="0px" viewBox="0 0 30.9 30.9" style="enable-background:new 0 0 30.9 30.9;" xml:space="preserve">
<style type="text/css">
	.st0{fill:#FFFFFF;}
	.st1{fill:#1C1B1F;}
</style>
<g>
	<path shape-rendering="crispEdges" class="st0" d="M15.4,0L15.4,0C24,0,30.9,6.9,30.9,15.4l0,0c0,8.5-6.9,15.4-15.4,15.4l0,0
		C6.9,30.9,0,24,0,15.4l0,0C0,6.9,6.9,0,15.4,0z"/>
	<path class="st1" d="M15.4,20.7c-1.4,0-2.6-0.5-3.7-1.5c-1-1-1.5-2.2-1.5-3.6v-0.1l-0.7,0.7l-1-1l2.7-2.7l2.7,2.7l-1,1l-0.7-0.7
		v0.1c0,0.9,0.3,1.6,1,2.3c0.6,0.6,1.4,0.9,2.3,0.9c0.3,0,0.6,0,0.9-0.1c0.3-0.1,0.6-0.2,0.8-0.3l1.4,1.4C18,20,17.6,20.2,17,20.4
		C16.5,20.6,16,20.7,15.4,20.7z M19.7,18.4L17,15.7l1-1l0.7,0.7v-0.1c0-0.9-0.3-1.6-1-2.3c-0.6-0.6-1.4-0.9-2.3-0.9
		c-0.3,0-0.6,0-0.9,0.1c-0.3,0.1-0.6,0.2-0.8,0.3l-1.4-1.4c0.5-0.3,0.9-0.6,1.5-0.7c0.5-0.2,1-0.3,1.6-0.3c1.4,0,2.6,0.5,3.7,1.5
		c1,1,1.6,2.2,1.6,3.6v0.1l0.7-0.7l1,1L19.7,18.4z"/>
</g>
</svg>
