<svg width="16" height="17" viewBox="0 0 16 17" fill="none" xmlns="http://www.w3.org/2000/svg">
<mask id="mask0_70_335" style="mask-type:alpha" maskUnits="userSpaceOnUse" x="0" y="0" width="16" height="17">
<rect y="0.5" width="16" height="16" fill="#D9D9D9"/>
</mask>
<g mask="url(#mask0_70_335)">
<path d="M7.99999 11.1667L4.66666 7.83335L5.59999 6.86669L7.33332 8.60002V3.16669H8.66666V8.60002L10.4 6.86669L11.3333 7.83335L7.99999 11.1667ZM3.99999 13.8334C3.63332 13.8334 3.31943 13.7028 3.05832 13.4417C2.79721 13.1806 2.66666 12.8667 2.66666 12.5V10.5H3.99999V12.5H12V10.5H13.3333V12.5C13.3333 12.8667 13.2028 13.1806 12.9417 13.4417C12.6805 13.7028 12.3667 13.8334 12 13.8334H3.99999Z" fill="#0DA941"/>
</g>
</svg>
