<?xml version="1.0" encoding="UTF-8"?>
<svg id="_레이어_2" data-name="레이어 2" xmlns="http://www.w3.org/2000/svg" viewBox="0 0 83 296">
  <defs>
    <style>
      .cls-1, .cls-2 {
        stroke-width: 0px;
      }

      .cls-2 {
        fill: #fff;
      }
    </style>
  </defs>
  <g id="_인간" data-name="인간">
    <g>
      <path class="cls-2" d="m56.5,295.5c-6.34,0-11.5-5.16-11.5-11.5v-110.5h-7v110.5c0,6.34-5.16,11.5-11.5,11.5h-13c-6.34,0-11.5-5.16-11.5-11.5v-128.2c0-.61.06-1.25.18-1.96l.02-.13-.04-.12c-1.1-3.16-1.66-6.45-1.66-9.79v-38.61c0-15.49,12.09-28.5,27.54-29.61l.46-.03v-8.59l-.31-.13c-12.88-5.39-21.19-17.88-21.19-31.84C7,15.98,22.48.5,41.5.5s34.5,15.48,34.5,34.5c0,13.95-8.32,26.45-21.19,31.84l-.31.13v8.59l.46.03c15.44,1.11,27.54,14.12,27.54,29.61v38.61c0,3.34-.56,6.64-1.66,9.79l-.04.12.02.13c.12.7.18,1.34.18,1.96v128.2c0,6.34-5.16,11.5-11.5,11.5h-13Z"/>
      <path class="cls-1" d="m41.5,1c18.75,0,34,15.25,34,34,0,13.75-8.2,26.07-20.89,31.38l-.61.26v9.39l.93.07c15.18,1.09,27.07,13.88,27.07,29.11v38.61c0,3.29-.55,6.53-1.63,9.63l-.09.25.04.26c.12.67.17,1.29.17,1.87v128.2c0,6.07-4.93,11-11,11h-13c-6.07,0-11-4.93-11-11v-111h-8v111c0,6.07-4.93,11-11,11h-13c-6.07,0-11-4.93-11-11v-128.2c0-.59.06-1.2.17-1.87l.04-.26-.09-.25c-1.08-3.1-1.63-6.34-1.63-9.63v-38.61c0-15.23,11.89-28.02,27.07-29.11l.93-.07v-9.39l-.61-.26c-12.69-5.31-20.89-17.63-20.89-31.38C7.5,16.25,22.75,1,41.5,1m0-1C22.17,0,6.5,15.67,6.5,35c0,14.54,8.87,27.01,21.5,32.3v7.79c-15.65,1.13-28,14.17-28,30.11v38.61c0,3.49.6,6.84,1.69,9.96-.12.67-.19,1.35-.19,2.04v128.2c0,6.6,5.4,12,12,12h13c6.6,0,12-5.4,12-12v-110h6v110c0,6.6,5.4,12,12,12h13c6.6,0,12-5.4,12-12v-128.2c0-.7-.07-1.38-.19-2.04,1.09-3.12,1.69-6.47,1.69-9.96v-38.61c0-15.94-12.35-28.98-28-30.11v-7.79c12.63-5.28,21.5-17.75,21.5-32.3C76.5,15.67,60.83,0,41.5,0h0Z"/>
    </g>
  </g>
</svg>